<?xml version="1.0" encoding="utf-8"?>
<svg xmlns="http://www.w3.org/2000/svg" viewBox="14.0995 222.151 428.1225 76.26" width="428.123px" height="76.26px">
  <path class="cls-1" d="M 212.406 255.576 L 197.309 273.614 L 174.818 273.614 L 174.818 261.802 L 199.979 261.802 L 199.979 249.05 L 174.818 249.05 L 174.818 238.327 L 196.957 238.327 L 212.406 255.576 Z M 117.559 273.614 L 95.243 273.614 L 95.243 261.802 L 111.797 261.802 L 111.797 249.209 L 95.111 249.209 L 95.111 238.327 L 117.559 238.327 L 117.559 273.614 Z M 257.195 223.345 L 239.015 223.345 L 221.557 244.791 L 202.921 223.345 L 160.767 223.345 L 160.767 273.614 L 132.436 273.614 L 132.436 223.345 L 80.4 223.345 L 80.4 249.015 L 42.918 249.015 L 42.918 261.829 L 67.158 261.829 C 64.531 269.734 57.041 274.988 48.715 274.765 C 35.946 274.765 29.394 265.5 29.394 254.908 C 29.394 244.316 37.034 235.692 47.565 235.692 C 58.094 235.692 65.313 243.079 65.313 243.079 L 75.412 233.514 C 68.668 227.833 62.002 222.151 48.592 222.151 C 24.424 222.151 14.982 241.348 14.166 253.546 C 13.226 267.818 22.14 287.2 47.59 287.2 C 76.115 287.2 80.963 264.366 80.963 264.366 L 80.963 287.2 L 204.036 287.2 L 221.407 266.482 L 238.822 287.2 L 257.203 287.2 L 230.505 255.295 L 257.195 223.345 Z" style="fill: rgb(227, 64, 92);" transform="matrix(0.9999999999999999, 0, 0, 0.9999999999999999, 0, 0)"/>
  <polygon class="cls-2" points="155.708 223.292 135.931 223.292 135.931 266.676 155.708 223.292" style="fill: rgb(187, 189, 191);" transform="matrix(0.9999999999999999, 0, 0, 0.9999999999999999, 0, 0)"/>
  <path class="cls-3" d="M 295.484 267.15 L 323.701 267.15 C 323.395 272.635 320.856 277.753 316.676 281.316 C 307.9 289.186 294.535 288.928 286.07 280.727 C 281.782 276.775 279.38 271.182 279.466 265.35 C 279.432 259.693 281.767 254.28 285.903 250.42 C 293.493 243.17 305.042 242.016 313.918 247.619 C 317.783 250.178 320.2 252.914 321.172 255.83 L 316.448 255.83 C 314.968 253.377 312.813 251.404 310.239 250.149 C 307.608 248.789 304.691 248.078 301.729 248.075 C 297.157 247.961 292.721 249.635 289.364 252.739 C 281.833 259.415 281.702 271.13 289.082 277.97 C 295.45 284.028 305.218 284.724 312.381 279.63 C 315.456 277.538 317.695 274.428 318.705 270.848 L 295.484 270.848 L 295.484 267.15 Z" style="fill: rgb(128, 129, 132); stroke: rgb(128, 129, 132); stroke-miterlimit: 10;" transform="matrix(0.9999999999999999, 0, 0, 0.9999999999999999, 0, 0)"/>
  <text style="fill: rgb(128, 129, 132); font-family: Arial, sans-serif; font-size: 57.2px; white-space: pre;" x="327.822" y="286.411" transform="matrix(0.9999999999999999, 0, 0, 0.9999999999999999, 0, 0)">ETC</text>
</svg>